<?xml version="1.0" encoding="UTF-8" standalone="no"?>
<!DOCTYPE svg PUBLIC "-//W3C//DTD SVG 1.1//EN" "http://www.w3.org/Graphics/SVG/1.1/DTD/svg11.dtd">
<svg width="100%" height="100%" viewBox="0 0 32 32" version="1.1" xmlns="http://www.w3.org/2000/svg" xmlns:xlink="http://www.w3.org/1999/xlink" xml:space="preserve" xmlns:serif="http://www.serif.com/" style="fill-rule:evenodd;clip-rule:evenodd;stroke-linejoin:round;stroke-miterlimit:2;">
    <g id="web" transform="matrix(0.0426667,0,0,0.0426667,-1.06667,-1.06667)">
        <path d="M348.083,81.476C335.84,121.334 310.691,208.523 296.638,294.419C333.11,300.307 368.737,304.07 400,304.07C431.263,304.07 466.89,300.307 503.363,294.419C489.31,208.523 464.16,121.334 451.917,81.476C435.03,78.747 417.69,77.326 400,77.326C382.31,77.326 364.97,78.747 348.083,81.476ZM511.123,96.964C524.567,143.5 543.193,214.276 554.827,284.912C605.043,274.568 652.423,261.941 686.833,252.036C649.953,180.701 587.24,124.887 511.123,96.964ZM707.097,300.644C670.74,311.228 618.077,325.443 561.98,336.857C564.317,358.547 565.697,379.86 565.697,400C565.697,429.387 562.757,461.37 558.15,493.527C625.3,479.527 686.893,461.633 718.523,451.917C721.253,435.03 722.673,417.69 722.673,400C722.673,365.3 717.207,331.917 707.097,300.644ZM703.037,511.123C663.887,522.43 607.633,537.397 548.78,548.78C537.397,607.633 522.43,663.887 511.123,703.037C599.927,670.46 670.46,599.927 703.037,511.123ZM451.92,718.523C461.633,686.893 479.527,625.3 493.527,558.15C461.37,562.757 429.387,565.697 400,565.697C370.613,565.697 338.63,562.757 306.474,558.15C320.474,625.3 338.367,686.893 348.083,718.523C364.97,721.253 382.31,722.673 400,722.673C417.69,722.673 435.03,721.253 451.92,718.523ZM288.876,703.037C277.569,663.887 262.603,607.633 251.219,548.78C192.366,537.397 136.112,522.43 96.964,511.123C129.541,599.927 200.072,670.46 288.876,703.037ZM81.476,451.917C113.105,461.633 174.7,479.527 241.849,493.527C237.243,461.37 234.302,429.387 234.302,400C234.302,379.86 235.683,358.547 238.019,336.857C181.923,325.443 129.26,311.228 92.904,300.644C82.794,331.917 77.326,365.3 77.326,400C77.326,417.69 78.747,435.03 81.476,451.917ZM113.168,252.036C147.577,261.941 194.955,274.568 245.174,284.912C256.805,214.276 275.434,143.5 288.875,96.964C212.761,124.887 150.046,180.701 113.168,252.036ZM289.641,346.293C287.712,365.147 286.628,383.227 286.628,400C286.628,431.33 290.408,467.067 296.328,503.673C332.933,509.593 368.67,513.373 400,513.373C431.33,513.373 467.067,509.593 503.673,503.673C509.593,467.067 513.373,431.33 513.373,400C513.373,383.227 512.287,365.147 510.36,346.293C472.587,352.343 434.493,356.397 400,356.397C365.507,356.397 327.412,352.343 289.641,346.293ZM322.424,33.039C347.477,27.768 373.43,25 400,25C426.57,25 452.523,27.768 477.577,33.039C600.36,58.876 700.937,144.699 747.333,258.391C765.18,302.119 775,349.943 775,400C775,426.57 772.233,452.523 766.96,477.577C736.477,622.453 622.453,736.477 477.577,766.96C452.523,772.233 426.57,775 400,775C373.43,775 347.477,772.233 322.424,766.96C177.548,736.477 63.524,622.453 33.039,477.577C27.768,452.523 25,426.57 25,400C25,349.907 34.836,302.044 52.708,258.289C99.123,144.648 199.675,58.868 322.424,33.039Z" style="fill:white;"/>
    </g>
</svg>
