<svg width="2048" height="2048" version="1.1" xmlns="http://www.w3.org/2000/svg" desc="Created with imagetracer.js version 1.2.6" ><path fill="rgb(0,0,0)" stroke="rgb(0,0,0)" stroke-width="1" opacity="0.8156862745098039" d="M 1122.5 318 L 1099.5 342 L 1122.5 318 Z " /><path fill="rgb(0,0,0)" stroke="rgb(0,0,0)" stroke-width="1" opacity="0.8156862745098039" d="M 1275.5 318 L 1276 669.5 L 1275 669.5 L 1275.5 318 Z " /><path fill="rgb(0,0,0)" stroke="rgb(0,0,0)" stroke-width="1" opacity="0.8156862745098039" d="M 1627.5 318 L 1628 669.5 L 1627 669.5 L 1627.5 318 Z " /><path fill="rgb(0,0,0)" stroke="rgb(0,0,0)" stroke-width="1" opacity="0.8156862745098039" d="M 1979.5 318 L 1980 670.5 L 1916 733.5 L 1979 670.5 L 1979.5 318 Z " /><path fill="rgb(0,0,0)" stroke="rgb(0,0,0)" stroke-width="1" opacity="0.8156862745098039" d="M 1584.5 360 L 1364.5 581 L 1584.5 360 Z " /><path fill="rgb(0,0,0)" stroke="rgb(0,0,0)" stroke-width="1" opacity="0.8156862745098039" d="M 943.5 498 L 628.5 814 L 943.5 498 Z " /><path fill="rgb(0,0,0)" stroke="rgb(0,0,0)" stroke-width="1" opacity="0.8156862745098039" d="M 1601.5 696 L 1276 1022.5 L 1276 1373 L 1627.5 1373 L 1734 1267.5 L 1629.5 1373 L 1979 1373 L 1979 1024.5 L 1844 1157.5 L 1980 1022.5 L 1980 1374 L 1276.5 1374 L 1275 1372.5 L 1275 1022.5 L 1601.5 696 Z " /><path fill="rgb(0,0,0)" stroke="rgb(0,0,0)" stroke-width="1" opacity="0.8156862745098039" d="M 1780.5 868 L 1627.5 1022 L 1780.5 868 Z " /><path fill="rgb(0,0,0)" stroke="rgb(0,0,0)" stroke-width="1" opacity="0.8156862745098039" d="M 472.5 970 L 421.5 1022 L 472.5 970 Z " /><path fill="rgb(0,0,0)" stroke="rgb(0,0,0)" stroke-width="1" opacity="0.8156862745098039" d="M 68.5 1022 L 69 1306 L 771.5 1306 L 773 1307.5 L 773 1659 L 1123 1659 L 1123.5 1022 L 1124 1660 L 773.5 1660 L 772 1658.5 L 772 1307 L 68 1307 L 68.5 1022 Z " /><path fill="rgb(0,0,0)" stroke="rgb(0,0,0)" stroke-width="1" opacity="0" d="M 0 0 L 2048 0 L 2048 2048 L 0 2048 L 0 0 Z M 773 318 L 68 1023 L 68 1307 L 772 1307 L 772 1659 L 774 1660 L 1124 1660 L 1124 1022 L 422 1022 L 1123 319 L 773 318 Z M 1275 318 L 1276 670 L 1626 319 L 1275 318 Z M 1627 318 L 1627 671 L 1275 1023 L 1275 1373 L 1277 1374 L 1980 1374 L 1980 1022 L 1628 1373 L 1627 1023 L 1980 671 L 1980 318 L 1627 318 Z " /><path fill="rgb(0,0,0)" stroke="rgb(0,0,0)" stroke-width="1" opacity="1" d="M 772.5 318 L 1122 318.5 L 421 1021.5 L 1123 1022 L 1123 1659 L 773 1659 L 773 1307.5 L 771.5 1306 L 69 1306 L 69 1021.5 L 772.5 318 Z " /><path fill="rgb(0,0,0)" stroke="rgb(0,0,0)" stroke-width="1" opacity="1" d="M 1276 318 L 1626 318.5 L 1276.5 669 L 1276 318 Z " /><path fill="rgb(0,0,0)" stroke="rgb(0,0,0)" stroke-width="1" opacity="1" d="M 1628 318 L 1979 318 L 1979 670.5 L 1627 1021.5 L 1627 1373 L 1276 1373 L 1276 1022.5 L 1628 669.5 L 1628 318 Z " /><path fill="rgb(0,0,0)" stroke="rgb(0,0,0)" stroke-width="1" opacity="1" d="M 1978.5 1024 L 1979 1373 L 1629 1372.5 L 1978.5 1024 Z " /></svg>