<?xml version="1.0" encoding="UTF-8" standalone="no"?>
<!DOCTYPE svg PUBLIC "-//W3C//DTD SVG 1.1//EN" "http://www.w3.org/Graphics/SVG/1.1/DTD/svg11.dtd">
<svg width="100%" height="100%" viewBox="0 0 32 32" version="1.1" xmlns="http://www.w3.org/2000/svg" xmlns:xlink="http://www.w3.org/1999/xlink" xml:space="preserve" xmlns:serif="http://www.serif.com/" style="fill-rule:evenodd;clip-rule:evenodd;stroke-linejoin:round;stroke-miterlimit:2;">
    <g transform="matrix(0.0541837,0,0,0.0541837,-5.60757,-5.67325)">
        <g transform="matrix(0.901871,0,0,1,39.2519,0)">
            <path d="M672.08,639.984C672.072,626.552 661.184,615.64 647.744,615.64L152.264,615.64C138.824,615.64 127.928,626.552 127.928,639.984L127.928,670.952C127.928,684.4 138.824,695.288 152.264,695.288L647.744,695.288C661.192,695.288 672.08,684.4 672.08,670.952L672.08,639.984Z" style="fill:white;"/>
        </g>
        <path d="M196.952,307.464L196.816,307.328L196.8,307.344C192.224,303.416 186.352,300.96 179.856,300.96C165.624,300.96 154.104,312.352 153.776,326.504L153.136,326.504L153.136,560.408L153.96,560.408C155.2,573.68 166.248,584.128 179.856,584.128C179.952,584.128 180.048,584.104 180.144,584.096L180.144,584.128L619.848,584.128L619.848,583.52C619.952,583.52 620.04,583.552 620.144,583.552C633.544,583.552 644.472,573.408 645.976,560.408L646.272,560.408L646.272,331.36C646.64,329.608 646.856,327.792 646.856,325.928C646.856,311.504 635.152,299.8 620.72,299.8C614.512,299.8 608.888,302.056 604.4,305.664L604.328,305.592L603.6,306.32C602.704,307.096 601.88,307.928 601.104,308.816L546.056,363.864L419.24,237.048L418.992,237.296C414.224,232.232 407.512,229.032 400.008,229.032C392.488,229.032 385.76,232.248 380.992,237.328L380.712,237.048L253.616,364.128L199.488,309.992C198.696,309.096 197.856,308.256 196.952,307.464ZM583.784,374.616L583.784,375.376L583.024,375.376L583.784,374.616Z" style="fill:white;"/>
        <circle cx="178.784" cy="217.04" r="48.336" style="fill:white;"/>
        <circle cx="618.784" cy="217.04" r="48.336" style="fill:white;"/>
        <circle cx="402.784" cy="153.04" r="48.336" style="fill:white;"/>
    </g>
</svg>
