<svg width="225" height="225" version="1.1" xmlns="http://www.w3.org/2000/svg" desc="Created with imagetracer.js version 1.2.6" ><path fill="rgb(0,0,0)" stroke="rgb(0,0,0)" stroke-width="1" opacity="1" d="M 38.5 7 L 105 7 L 105 85.5 L 108.5 91 L 113.5 92 L 119 88.5 L 120 85.5 L 120 7 L 186.5 7 Q 202.1 9.4 210 19.5 L 215 27.5 L 218 38.5 L 218 186.5 L 213 201.5 L 205.5 210 L 197.5 215 L 186.5 218 L 120 218 L 120 167.5 L 118 163 L 112.5 161 L 106 164.5 L 105 167.5 L 105 218 L 38.5 218 L 23.5 213 L 15 205.5 L 10 197.5 L 7 186.5 L 7 37.5 Q 9.7 22.7 19.5 15 L 27.5 10 L 38.5 7 Z M 176 28 L 168 32 L 163 38 L 161 46 L 161 95 L 164 105 Q 168 111 178 113 Q 185 113 190 110 Q 195 106 197 99 L 197 42 L 195 37 Q 191 27 176 28 Z M 103 105 L 92 110 Q 86 114 84 123 L 84 131 L 88 140 Q 93 146 103 148 Q 113 148 119 144 Q 125 139 127 130 Q 128 118 122 113 Q 117 104 103 105 Z M 44 112 L 36 115 Q 30 119 28 126 L 28 184 L 30 189 Q 34 195 42 197 Q 53 198 58 193 L 63 185 L 64 180 L 64 131 L 61 121 Q 57 112 44 112 Z " /><path fill="rgb(195,195,195)" stroke="rgb(195,195,195)" stroke-width="1" opacity="1" d="M 35.5 7 L 38 7.5 L 35.5 8 L 35.5 7 Z " /><path fill="rgb(195,195,195)" stroke="rgb(195,195,195)" stroke-width="1" opacity="1" d="M 105.5 7 L 106 85.5 L 105 85.5 L 105.5 7 Z " /><path fill="rgb(195,195,195)" stroke="rgb(195,195,195)" stroke-width="1" opacity="1" d="M 119.5 7 L 120 85.5 L 119 85.5 L 119.5 7 Z " /><path fill="rgb(195,195,195)" stroke="rgb(195,195,195)" stroke-width="1" opacity="1" d="M 187.5 7 L 190 7.5 L 187.5 8 L 187.5 7 Z " /><path fill="rgb(195,195,195)" stroke="rgb(195,195,195)" stroke-width="1" opacity="1" d="M 200.5 11 L 201.5 13 L 200.5 11 Z " /><path fill="rgb(195,195,195)" stroke="rgb(195,195,195)" stroke-width="1" opacity="1" d="M 21.5 13 L 20.5 15 L 21.5 13 Z " /><path fill="rgb(195,195,195)" stroke="rgb(195,195,195)" stroke-width="1" opacity="1" d="M 203.5 13 L 204.5 15 L 203.5 13 Z " /><path fill="rgb(195,195,195)" stroke="rgb(195,195,195)" stroke-width="1" opacity="1" d="M 210.5 20 L 211.5 22 L 210.5 20 Z " /><path fill="rgb(195,195,195)" stroke="rgb(195,195,195)" stroke-width="1" opacity="1" d="M 212.5 23 L 213.5 25 L 212.5 23 Z " /><path fill="rgb(195,195,195)" stroke="rgb(195,195,195)" stroke-width="1" opacity="1" d="M 175.5 28 L 178 28.5 L 175.5 29 L 175.5 28 Z " /><path fill="rgb(195,195,195)" stroke="rgb(195,195,195)" stroke-width="1" opacity="1" d="M 181.5 28 L 184 28.5 L 181.5 29 L 181.5 28 Z " /><path fill="rgb(195,195,195)" stroke="rgb(195,195,195)" stroke-width="1" opacity="1" d="M 188.5 30 L 189.5 32 L 188.5 30 Z " /><path fill="rgb(195,195,195)" stroke="rgb(195,195,195)" stroke-width="1" opacity="1" d="M 167.5 32 L 165.5 35 L 167.5 32 Z " /><path fill="rgb(195,195,195)" stroke="rgb(195,195,195)" stroke-width="1" opacity="1" d="M 7.5 34 L 8 36.5 L 7 36.5 L 7.5 34 Z " /><path fill="rgb(195,195,195)" stroke="rgb(195,195,195)" stroke-width="1" opacity="1" d="M 193.5 35 L 194.5 37 L 193.5 35 Z " /><path fill="rgb(195,195,195)" stroke="rgb(195,195,195)" stroke-width="1" opacity="1" d="M 217.5 35 L 218 37.5 L 217 37.5 L 217.5 35 Z " /><path fill="rgb(195,195,195)" stroke="rgb(195,195,195)" stroke-width="1" opacity="1" d="M 164.5 36 L 163.5 38 L 164.5 36 Z " /><path fill="rgb(195,195,195)" stroke="rgb(195,195,195)" stroke-width="1" opacity="1" d="M 196.5 41 L 197 44.5 L 196 44.5 L 196.5 41 Z " /><path fill="rgb(195,195,195)" stroke="rgb(195,195,195)" stroke-width="1" opacity="1" d="M 161.5 45 L 162 94.5 L 161 94.5 L 161.5 45 Z " /><path fill="rgb(195,195,195)" stroke="rgb(195,195,195)" stroke-width="1" opacity="1" d="M 106.5 88 L 108.5 91 L 106.5 88 Z " /><path fill="rgb(195,195,195)" stroke="rgb(195,195,195)" stroke-width="1" opacity="1" d="M 118.5 88 L 116.5 91 L 118.5 88 Z " /><path fill="rgb(195,195,195)" stroke="rgb(195,195,195)" stroke-width="1" opacity="1" d="M 111.5 91 L 114 91.5 L 111.5 92 L 111.5 91 Z " /><path fill="rgb(195,195,195)" stroke="rgb(195,195,195)" stroke-width="1" opacity="1" d="M 196.5 96 L 197 98.5 L 196 98.5 L 196.5 96 Z " /><path fill="rgb(195,195,195)" stroke="rgb(195,195,195)" stroke-width="1" opacity="1" d="M 102.5 105 L 109 105.5 L 102.5 106 L 102.5 105 Z " /><path fill="rgb(195,195,195)" stroke="rgb(195,195,195)" stroke-width="1" opacity="1" d="M 193.5 105 L 189.5 110 L 193.5 105 Z " /><path fill="rgb(195,195,195)" stroke="rgb(195,195,195)" stroke-width="1" opacity="1" d="M 91.5 110 L 88.5 114 L 91.5 110 Z " /><path fill="rgb(195,195,195)" stroke="rgb(195,195,195)" stroke-width="1" opacity="1" d="M 119.5 110 L 121.5 113 L 119.5 110 Z " /><path fill="rgb(195,195,195)" stroke="rgb(195,195,195)" stroke-width="1" opacity="1" d="M 43.5 112 L 48 112.5 L 43.5 113 L 43.5 112 Z " /><path fill="rgb(195,195,195)" stroke="rgb(195,195,195)" stroke-width="1" opacity="1" d="M 177.5 112 L 182 112.5 L 177.5 113 L 177.5 112 Z " /><path fill="rgb(195,195,195)" stroke="rgb(195,195,195)" stroke-width="1" opacity="1" d="M 35.5 115 L 31.5 120 L 35.5 115 Z " /><path fill="rgb(195,195,195)" stroke="rgb(195,195,195)" stroke-width="1" opacity="1" d="M 59.5 119 L 60.5 121 L 59.5 119 Z " /><path fill="rgb(195,195,195)" stroke="rgb(195,195,195)" stroke-width="1" opacity="1" d="M 84.5 122 L 85 130.5 L 84 130.5 L 84.5 122 Z " /><path fill="rgb(195,195,195)" stroke="rgb(195,195,195)" stroke-width="1" opacity="1" d="M 126.5 123 L 127 129.5 L 126 129.5 L 126.5 123 Z " /><path fill="rgb(195,195,195)" stroke="rgb(195,195,195)" stroke-width="1" opacity="1" d="M 28.5 125 L 29 127.5 L 28 127.5 L 28.5 125 Z " /><path fill="rgb(195,195,195)" stroke="rgb(195,195,195)" stroke-width="1" opacity="1" d="M 63.5 130 L 64 179.5 L 63 179.5 L 63.5 130 Z " /><path fill="rgb(195,195,195)" stroke="rgb(195,195,195)" stroke-width="1" opacity="1" d="M 88.5 139 L 92.5 144 L 88.5 139 Z " /><path fill="rgb(195,195,195)" stroke="rgb(195,195,195)" stroke-width="1" opacity="1" d="M 122.5 139 L 118.5 144 L 122.5 139 Z " /><path fill="rgb(195,195,195)" stroke="rgb(195,195,195)" stroke-width="1" opacity="1" d="M 102.5 147 L 109 147.5 L 102.5 148 L 102.5 147 Z " /><path fill="rgb(195,195,195)" stroke="rgb(195,195,195)" stroke-width="1" opacity="1" d="M 107.5 163 L 106.5 165 L 107.5 163 Z " /><path fill="rgb(195,195,195)" stroke="rgb(195,195,195)" stroke-width="1" opacity="1" d="M 105.5 167 L 106 217.5 L 105 217.5 L 105.5 167 Z " /><path fill="rgb(195,195,195)" stroke="rgb(195,195,195)" stroke-width="1" opacity="1" d="M 119.5 167 L 120 217.5 L 119 217.5 L 119.5 167 Z " /><path fill="rgb(195,195,195)" stroke="rgb(195,195,195)" stroke-width="1" opacity="1" d="M 28.5 181 L 29 183.5 L 28 183.5 L 28.5 181 Z " /><path fill="rgb(195,195,195)" stroke="rgb(195,195,195)" stroke-width="1" opacity="1" d="M 7.5 187 L 8 189.5 L 7 189.5 L 7.5 187 Z " /><path fill="rgb(195,195,195)" stroke="rgb(195,195,195)" stroke-width="1" opacity="1" d="M 217.5 187 L 218 189.5 L 217 189.5 L 217.5 187 Z " /><path fill="rgb(195,195,195)" stroke="rgb(195,195,195)" stroke-width="1" opacity="1" d="M 30.5 188 L 31.5 190 L 30.5 188 Z " /><path fill="rgb(195,195,195)" stroke="rgb(195,195,195)" stroke-width="1" opacity="1" d="M 59.5 190 L 57.5 193 L 59.5 190 Z " /><path fill="rgb(195,195,195)" stroke="rgb(195,195,195)" stroke-width="1" opacity="1" d="M 35.5 193 L 36.5 195 L 35.5 193 Z " /><path fill="rgb(195,195,195)" stroke="rgb(195,195,195)" stroke-width="1" opacity="1" d="M 41.5 196 L 44 196.5 L 41.5 197 L 41.5 196 Z " /><path fill="rgb(195,195,195)" stroke="rgb(195,195,195)" stroke-width="1" opacity="1" d="M 47.5 196 L 50 196.5 L 47.5 197 L 47.5 196 Z " /><path fill="rgb(195,195,195)" stroke="rgb(195,195,195)" stroke-width="1" opacity="1" d="M 13.5 203 L 14.5 205 L 13.5 203 Z " /><path fill="rgb(195,195,195)" stroke="rgb(195,195,195)" stroke-width="1" opacity="1" d="M 211.5 203 L 210.5 205 L 211.5 203 Z " /><path fill="rgb(195,195,195)" stroke="rgb(195,195,195)" stroke-width="1" opacity="1" d="M 20.5 210 L 21.5 212 L 20.5 210 Z " /><path fill="rgb(195,195,195)" stroke="rgb(195,195,195)" stroke-width="1" opacity="1" d="M 204.5 210 L 203.5 212 L 204.5 210 Z " /><path fill="rgb(195,195,195)" stroke="rgb(195,195,195)" stroke-width="1" opacity="1" d="M 201.5 212 L 200.5 214 L 201.5 212 Z " /><path fill="rgb(195,195,195)" stroke="rgb(195,195,195)" stroke-width="1" opacity="1" d="M 35.5 217 L 38 217.5 L 35.5 218 L 35.5 217 Z " /><path fill="rgb(195,195,195)" stroke="rgb(195,195,195)" stroke-width="1" opacity="1" d="M 187.5 217 L 190 217.5 L 187.5 218 L 187.5 217 Z " /><path fill="rgb(255,255,255)" stroke="rgb(255,255,255)" stroke-width="1" opacity="1" d="M 0 0 L 225 0 L 225 225 L 0 225 L 0 0 Z M 36 7 L 22 13 Q 11 20 7 35 L 7 190 L 13 204 Q 20 215 36 218 L 106 218 L 106 166 L 111 162 L 117 163 L 119 166 L 119 218 L 190 218 L 204 212 Q 215 205 218 190 L 218 36 L 212 22 Q 205 10 190 7 L 119 7 L 119 88 L 116 91 Q 108 93 106 88 L 106 7 L 36 7 Z " /><path fill="rgb(255,255,255)" stroke="rgb(255,255,255)" stroke-width="1" opacity="1" d="M 178.5 28 Q 188.6 28.4 193 34.5 L 197 45.5 L 197 95.5 L 194 104.5 L 188.5 110 Q 183.8 113.3 174.5 112 L 165 105.5 L 162 98.5 L 162 41.5 Q 164.3 34.8 169.5 31 L 178.5 28 Z " /><path fill="rgb(255,255,255)" stroke="rgb(255,255,255)" stroke-width="1" opacity="1" d="M 100.5 106 Q 117.5 104.5 123 114.5 Q 127.5 120 126 131.5 Q 123.9 139.8 117.5 144 Q 112 149 99.5 147 Q 92.1 144.4 88 138.5 Q 83 133 85 120.5 Q 87.6 113.1 93.5 109 L 100.5 106 Z " /><path fill="rgb(255,255,255)" stroke="rgb(255,255,255)" stroke-width="1" opacity="1" d="M 41.5 113 L 50.5 113 L 59 118.5 L 63 126.5 L 63 182.5 Q 61.2 190.2 55.5 194 L 51.5 196 L 44.5 197 L 37.5 195 L 32 190.5 L 28 180.5 L 28 128.5 Q 29.8 119.3 36.5 115 L 41.5 113 Z " /></svg>